Coordinates
nRows=127
nColumns=2
inDegrees=yes
endheader
time	ankle_angle_r	
2.5	 18.733477	
2.5625	 18.729761	
2.625	 18.717443	
2.6875	 18.694230	
2.75	 18.683913	
2.8125	 18.692422	
2.875	 18.692772	
2.9375	 18.665196	
3	 18.641934	
3.0625	 18.653775	
3.125	 18.648713	
3.1875	 18.627416	
3.25	 18.644658	
3.3125	 18.655974	
3.375	 18.644212	
3.4375	 18.636749	
3.5	 18.620569	
3.5625	 18.623231	
3.625	 18.641901	
3.6875	 18.642345	
3.75	 18.643171	
3.8125	 18.645609	
3.875	 18.644425	
3.9375	 18.637428	
4	 18.623014	
4.0625	 18.621207	
4.125	 18.620001	
4.1875	 18.620030	
4.25	 18.637190	
4.3125	 18.644687	
4.375	 18.649458	
4.4375	 18.672504	
4.5	 18.691166	
4.5625	 18.692134	
4.625	 18.690293	
4.6875	 18.717549	
4.75	 18.748011	
4.8125	 18.733359	
4.875	 18.726270	
4.9375	 18.737989	
5	 18.714728	
5.0625	 18.686042	
5.125	 18.678228	
5.1875	 18.686080	
5.25	 18.699019	
5.3125	 18.695685	
5.375	 18.700438	
5.4375	 18.696397	
5.5	 18.653583	
5.5625	 18.623618	
5.625	 18.618352	
5.6875	 18.625684	
5.75	 18.647087	
5.8125	 18.653276	
5.875	 18.655781	
5.9375	 18.666827	
6	 18.665248	
6.0625	 18.660734	
6.125	 18.668586	
6.1875	 18.693923	
6.25	 18.720317	
6.3125	 18.736114	
6.375	 18.747833	
6.4375	 18.726777	
6.5	 18.697430	
6.5625	 18.703733	
6.625	 18.684996	
6.6875	 18.651083	
6.75	 18.667409	
6.8125	 18.679422	
6.875	 18.661259	
6.9375	 18.639665	
7	 18.615982	
7.0625	 18.616868	
7.125	 18.630373	
7.1875	 18.636114	
7.25	 18.649979	
7.3125	 18.656218	
7.375	 18.656125	
7.4375	 18.654785	
7.5	 18.648236	
7.5625	 18.652625	
7.625	 18.662064	
7.6875	 18.694938	
7.75	 18.740885	
7.8125	 18.746524	
7.875	 18.732816	
7.9375	 18.710875	
8	 18.696196	
8.0625	 18.721256	
8.125	 18.710355	
8.1875	 18.659028	
8.25	 18.659915	
8.3125	 18.683145	
8.375	 18.675454	
8.4375	 18.647980	
8.5	 18.623690	
8.5625	 18.621694	
8.625	 18.628748	
8.6875	 18.645007	
8.75	 18.665071	
8.8125	 18.654311	
8.875	 18.636993	
8.9375	 18.644034	
9	 18.655716	
9.0625	 18.664120	
9.125	 18.673401	
9.1875	 18.696878	
9.25	 18.731279	
9.3125	 18.746173	
9.375	 18.754876	
9.4375	 18.748518	
9.5	 18.710746	
9.5625	 18.705601	
9.625	 18.722510	
9.6875	 18.699586	
9.75	 18.663453	
9.8125	 18.641793	
9.875	 18.639334	
9.9375	 18.642180	
10	 18.629561	
10.0625	 18.625795	
10.125	 18.613281	
10.1875	 18.574738	
10.25	 18.586398	
10.3125	 18.634677	
10.375	 18.626655	
